for Details visit 
 
http://www.mastitorrents.com/forums/showthread.php?p=68700#post68700

General
Complete name : India Uncovered - Meenakshi and Naveen.wmv
Format : Windows Media
File size : 321 MiB
Duration : 21mn 17s
Overall bit rate mode : Variable
Overall bit rate : 2 111 Kbps
Maximum Overall bit rate : 3 141 Kbps
Encoded date : UTC 2008-12-03 13:21:11.551

Video
ID : 2
Format : VC-1
Format profile : MP@HL
Codec ID : WMV3
Codec ID/Info : Windows Media Video 9
Codec ID/Hint : WMV3
Description of the codec : Windows Media Video 9 - Professional
Duration : 21mn 16s
Bit rate mode : Variable
Bit rate : 2 000 Kbps
Width : 1 280 pixels
Height : 720 pixels
Display aspect ratio : 16:9
Frame rate : 29.970 fps
Resolution : 24 bits
Scan type : Progressive
Bits/(Pixel*Frame) : 0.072
Stream size : 304 MiB (95%)

Audio
ID : 1
Format : WMA
Format version : Version 2
Codec ID : 161
Codec ID/Info : Windows Media Audio
Description of the codec : Windows Media Audio 9.2 - 96 kbps, 44 kHz, stereo 2-pass VBR
Duration : 21mn 17s
Bit rate mode : Variable
Bit rate : 97.0 Kbps
Channel(s) : 2 channels
Sampling rate : 44.1 KHz
Resolution : 16 bits
Stream size : 14.8 MiB (5%)